# xmcd CD database file
#
# Track frame offsets:
#	150
#	12271
#	26044
#	42605
#	60350
#	71722
#	80761
#	92128
#	105559
#	120912
#	138606
#	156863
#	168991
#	181283
#	194186
#	204681
#	214602
#	225922
#	241016
#	257411
#	271212
#	282782
#	302324
#	316766
#	329705
#	345782
#	359556
#	376542
#	389060
#	402447
#
# Disc length: 5484 seconds
#
# Revision: 0
# Processed by: cddbd v1.5.2PL0 Copyright (c) Steve Scherf et al.
# Submitted via: CDex 1.51
#
DISCID=ad156a1e
DTITLE=Lynn Anderson - The Ultimate Collection CD2
DYEAR=2008
DGENRE=Country
TTITLE0=Even Cowgirls Get the Blues (Live)
TTITLE1=Danny's Song
TTITLE2=When I Dream
TTITLE3=The Worst Is Yet to Come (Live)
TTITLE4=Someday Soon
TTITLE5=Ride, Ride, Ride
TTITLE6=That's a No No (Live)
TTITLE7=Keep Me In Mind
TTITLE8=Paradise (Live)
TTITLE9=Midnight Train to Georgia
TTITLE10=Someday Soon (Live)
TTITLE11=You're My Man
TTITLE12=Rodeo Cowboy
TTITLE13=I Fall to Pieces
TTITLE14=What a Man My Man Is
TTITLE15=Snowbird
TTITLE16=Ways to Love a Man
TTITLE17=Faithless Love
TTITLE18=I Was Country When Country Wasn't Cool
TTITLE19=Talking In Your Sleep
TTITLE20=Heaven's Just a Sin Away
TTITLE21=I Won't Leave You Lonely
TTITLE22=Cry
TTITLE23=Top of the World
TTITLE24=You Needed Me
TTITLE25=Top of the World (Live)
TTITLE26=Faithless Love (Live)
TTITLE27=I've Been to Everywhere
TTITLE28=Mansion On the Hill
TTITLE29=Rocky Top
EXTD=YEAR: 2008
EXTT0=
EXTT1=
EXTT2=
EXTT3=
EXTT4=
EXTT5=
EXTT6=
EXTT7=
EXTT8=
EXTT9=
EXTT10=
EXTT11=
EXTT12=
EXTT13=
EXTT14=
EXTT15=
EXTT16=
EXTT17=
EXTT18=
EXTT19=
EXTT20=
EXTT21=
EXTT22=
EXTT23=
EXTT24=
EXTT25=
EXTT26=
EXTT27=
EXTT28=
EXTT29=
PLAYORDER=
